<?xml version="1.0" standalone="no"?>
<!DOCTYPE svg PUBLIC "-//W3C//DTD SVG 20010904//EN"
 "http://www.w3.org/TR/2001/REC-SVG-20010904/DTD/svg10.dtd">
<svg version="1.0" xmlns="http://www.w3.org/2000/svg"
 width="820.000000pt" height="260.000000pt" viewBox="0 0 820.000000 260.000000"
 preserveAspectRatio="xMidYMid meet">

<g transform="translate(0.000000,260.000000) scale(0.100000,-0.100000)"
fill="#000000" stroke="none">
<path d="M36 2569 c-14 -17 -24 -35 -20 -40 3 -5 0 -9 -5 -9 -6 0 -11 -7 -11
-16 0 -8 4 -13 9 -10 4 3 23 0 42 -6 19 -6 78 -14 133 -17 147 -10 130 25 266
-522 62 -250 121 -488 130 -529 19 -81 85 -343 100 -400 24 -89 49 -192 65
-264 l17 -78 351 6 c194 4 483 11 642 17 160 5 363 9 453 9 89 0 162 3 162 8
0 16 -17 28 -69 52 l-55 25 -685 -4 -686 -3 -21 23 c-12 13 -31 60 -42 104
-12 44 -29 107 -38 140 -9 33 -20 76 -24 95 -5 19 -36 139 -70 265 -33 127
-76 289 -94 360 -19 72 -42 157 -51 190 -9 33 -23 89 -31 124 -8 35 -16 67
-19 71 -2 4 -20 68 -39 141 -19 74 -42 161 -50 194 -20 76 -20 92 2 98 9 3
-62 5 -160 6 l-176 1 -26 -31z m24 -3 c0 -2 -8 -10 -17 -17 -16 -13 -17 -12
-4 4 13 16 21 21 21 13z"/>
<path d="M1495 2395 c-78 -13 -205 -55 -232 -76 -7 -6 -13 -8 -13 -4 0 3 -12
-3 -26 -14 -15 -12 -32 -21 -38 -21 -18 -1 -77 -60 -71 -70 3 -5 0 -8 -7 -5
-18 7 -102 -101 -94 -121 3 -8 2 -12 -4 -9 -11 7 -31 -32 -49 -95 -8 -25 -18
-58 -23 -75 -16 -52 -22 -220 -9 -267 6 -24 13 -54 15 -68 3 -14 5 -25 6 -25
1 0 3 -11 6 -25 5 -27 53 -132 64 -140 4 -3 10 -15 14 -26 9 -29 41 -65 50
-57 4 4 4 0 0 -10 -3 -9 -2 -17 4 -17 5 0 27 -18 48 -40 44 -46 121 -93 137
-83 5 3 7 2 4 -4 -9 -14 64 -48 158 -74 74 -20 88 -21 185 -11 75 8 136 22
210 48 58 20 107 40 110 43 3 4 19 15 35 25 58 37 124 99 118 110 -3 6 -3 8 2
4 4 -4 14 -3 22 3 15 13 1 39 -21 39 -6 0 -31 15 -55 34 l-44 33 -57 -56 c-66
-65 -154 -116 -230 -132 -35 -7 -48 -14 -39 -19 7 -5 -5 -6 -29 -3 -28 4 -42
2 -42 -6 0 -6 -5 -11 -11 -11 -5 0 -7 5 -4 10 4 6 -9 10 -32 10 -39 0 -104 17
-158 41 -63 28 -175 123 -215 182 -14 20 -28 37 -32 37 -3 0 -4 10 0 22 4 17
2 20 -12 15 -15 -6 -15 -4 2 21 11 15 31 37 44 49 21 20 242 113 403 170 39
14 74 29 80 34 5 5 17 9 27 9 10 0 18 5 18 10 0 6 8 10 18 10 29 0 137 49 134
61 -2 7 5 9 18 6 20 -5 163 45 185 64 5 5 17 9 27 9 10 0 18 4 18 8 0 5 6 9
14 9 8 0 28 5 44 12 28 12 30 15 20 37 -6 13 -15 21 -21 17 -6 -3 -7 -1 -3 6
14 23 -115 218 -136 205 -4 -3 -5 3 -1 13 3 10 3 15 -1 11 -5 -4 -19 3 -33 16
-63 59 -243 128 -363 139 -30 3 -91 0 -135 -8z m-218 -99 c0 -8 -6 -12 -15 -9
-11 5 -11 7 0 14 7 5 13 9 14 9 0 0 1 -6 1 -14z m449 -57 c37 -11 86 -33 108
-47 23 -14 48 -25 56 -24 11 2 12 1 3 -6 -9 -6 -2 -19 27 -47 22 -22 40 -49
40 -60 0 -25 -34 -59 -69 -70 -19 -6 -21 -9 -10 -17 11 -8 10 -8 -4 -4 -11 3
-40 -3 -65 -15 -26 -11 -55 -22 -65 -24 -10 -2 -37 -13 -60 -24 -23 -11 -91
-37 -152 -59 -60 -23 -141 -55 -180 -72 -81 -37 -203 -80 -226 -80 -21 0 -73
56 -65 69 4 6 2 21 -5 33 -6 13 -8 20 -4 15 5 -4 17 25 27 64 22 90 50 145 98
198 21 22 35 41 31 41 -15 0 101 75 159 103 108 52 241 61 356 26z"/>
<path d="M5710 1980 c-49 -9 -117 -46 -130 -71 -9 -16 -14 -18 -26 -8 -8 6
-14 8 -14 3 0 -5 -7 2 -16 14 -8 12 -29 29 -46 38 -35 18 -125 28 -133 14 -3
-4 -13 -6 -23 -3 -10 2 -24 -3 -31 -11 -17 -20 -40 -20 -65 -1 -11 9 -41 15
-68 15 l-48 0 0 -245 0 -245 34 0 33 0 6 68 c4 37 7 110 7 163 0 82 3 99 20
119 12 13 18 31 15 39 -3 9 -3 12 1 8 4 -4 18 2 30 14 13 13 41 23 68 26 38 5
48 2 70 -20 13 -14 27 -23 29 -21 2 3 13 -12 23 -33 16 -31 20 -66 22 -200 l4
-163 34 0 34 0 0 133 c0 187 4 202 62 260 47 47 51 49 95 44 33 -3 54 -13 78
-37 23 -23 34 -28 38 -18 3 7 5 0 5 -17 -1 -16 -1 -105 0 -197 l2 -168 40 0
39 0 -3 133 c-3 72 -5 165 -5 206 -1 61 -3 72 -16 67 -13 -4 -14 -2 -5 14 6
11 8 25 5 30 -9 15 -62 40 -69 33 -3 -4 -6 -1 -6 6 0 8 -6 11 -16 7 -9 -4 -22
-3 -28 2 -6 5 -27 6 -46 2z"/>
<path d="M3037 1969 c-74 -17 -131 -58 -161 -116 -9 -18 -15 -33 -13 -33 2 0
-1 -21 -8 -46 -15 -60 -3 -137 31 -198 24 -42 34 -51 57 -47 5 1 6 -3 2 -9 -3
-5 6 -15 22 -20 15 -6 36 -15 45 -20 10 -6 56 -10 103 -10 87 0 147 16 192 51
l23 17 -35 26 c-34 26 -34 26 -52 7 -26 -28 -66 -41 -123 -41 -57 0 -133 27
-123 43 4 6 0 8 -10 4 -12 -4 -14 -2 -10 11 3 9 3 14 -2 10 -13 -12 -44 37
-51 80 -15 95 23 174 104 216 47 24 172 22 205 -4 14 -11 30 -20 36 -20 16 0
61 22 61 31 0 4 -23 21 -51 39 -44 27 -62 32 -128 34 -42 2 -93 -1 -114 -5z"/>
<path d="M3665 1970 c-54 -12 -120 -54 -110 -70 3 -4 -6 -15 -19 -23 -30 -20
-45 -82 -41 -167 4 -93 4 -92 17 -84 6 4 8 3 4 -4 -19 -31 45 -105 116 -133
57 -24 178 -25 221 -2 60 31 89 58 115 108 21 41 26 64 27 126 0 65 -4 83 -31
135 -26 52 -37 62 -89 88 -61 29 -149 41 -210 26z m155 -73 c83 -59 117 -126
105 -207 -13 -82 -99 -160 -180 -160 -37 0 -115 29 -115 43 0 4 -4 5 -10 2 -6
-4 -7 1 -3 11 4 11 2 15 -4 11 -6 -4 -20 15 -33 45 -18 42 -21 61 -15 107 4
31 15 67 25 81 10 14 18 28 19 33 1 4 2 6 4 5 1 -2 16 7 32 19 17 11 41 23 55
26 35 7 99 -1 120 -16z"/>
<path d="M4385 1971 c-4 -3 -10 -6 -13 -6 -4 0 -26 -6 -49 -14 -38 -13 -45
-12 -61 2 -25 23 -98 23 -106 1 -4 -9 -6 -119 -6 -245 l1 -229 40 0 39 0 0
150 c0 103 4 161 13 183 8 18 12 39 10 47 -4 11 -2 12 4 2 7 -10 14 -8 29 9
26 29 67 49 102 49 29 0 97 -42 85 -53 -3 -4 -2 -7 4 -7 23 0 33 -68 33 -221
l0 -159 38 0 38 0 -1 158 0 157 30 41 c44 62 87 88 132 81 62 -10 129 -93 117
-144 -4 -13 -3 -84 1 -158 l7 -135 34 0 34 0 0 176 c0 184 -11 267 -36 257 -8
-3 -14 -1 -14 5 0 6 6 12 13 15 22 7 -71 47 -112 47 -48 0 -115 -25 -154 -56
-32 -27 -49 -23 -94 19 -28 26 -41 31 -92 32 -33 2 -63 0 -66 -4z"/>
<path d="M6242 1969 c-13 -5 -28 -7 -32 -4 -5 3 -31 -8 -57 -24 -50 -31 -84
-76 -75 -100 3 -8 0 -11 -6 -7 -14 9 -27 -53 -25 -122 1 -79 55 -192 92 -192
8 0 11 -3 7 -7 -3 -4 15 -15 41 -25 92 -36 231 -20 301 33 l23 17 -23 16 c-29
21 -30 20 -104 -9 -76 -30 -145 -26 -180 12 -22 24 -40 32 -28 11 4 -7 3 -8
-5 -4 -6 4 -9 11 -6 15 2 5 -4 16 -15 26 -11 10 -20 28 -20 40 0 12 9 30 20
40 11 10 18 20 16 24 -2 3 85 5 195 3 187 -3 199 -2 199 15 0 31 -27 118 -44
145 -9 13 -13 28 -9 33 5 4 2 5 -4 1 -7 -4 -13 -2 -13 3 0 15 -92 60 -127 63
-16 1 -35 -2 -42 -7 -10 -5 -12 -4 -7 3 9 15 -38 15 -72 1z m102 -48 c3 -4 18
-11 33 -14 38 -8 73 -43 73 -72 0 -25 14 -34 23 -15 3 6 4 5 3 -2 -2 -7 -10
-13 -18 -13 -9 0 -24 -8 -35 -17 -13 -11 -48 -18 -121 -23 -99 -7 -104 -6
-128 16 -25 23 -32 63 -14 74 6 4 7 12 4 18 -4 7 -3 9 1 4 5 -4 17 1 28 10 34
31 139 55 151 34z m-277 -153 c-3 -7 -5 -2 -5 12 0 14 2 19 5 13 2 -7 2 -19 0
-25z"/>
<path d="M6845 1969 c-16 -5 -60 -7 -97 -4 -66 6 -68 6 -69 -17 0 -19 0 -226
1 -425 0 -42 1 -43 35 -43 l35 0 0 159 c0 88 5 172 11 188 15 40 69 93 95 93
16 0 25 9 33 30 11 33 7 35 -44 19z"/>
<path d="M7163 1960 c-71 -25 -110 -54 -133 -100 -21 -41 -27 -66 -10 -40 5 8
10 10 10 4 0 -6 -7 -17 -15 -24 -8 -7 -17 -28 -21 -47 -7 -36 13 -140 28 -149
5 -3 15 -21 23 -40 8 -19 18 -34 24 -34 5 0 16 -6 23 -13 7 -7 32 -21 56 -30
80 -32 277 -12 301 31 5 9 13 16 18 14 4 -2 9 2 12 9 2 8 -3 10 -18 6 -11 -3
-19 -2 -16 3 3 4 -2 14 -11 21 -13 10 -17 10 -25 -2 -5 -8 -9 -10 -9 -5 0 5
-9 1 -21 -10 -17 -15 -36 -19 -103 -19 -69 0 -86 3 -110 22 -16 13 -33 20 -40
16 -6 -3 -8 -2 -3 2 4 5 -5 22 -20 37 -26 27 -28 36 -28 109 l0 80 60 54 c48
43 69 55 106 60 53 7 117 -7 150 -34 22 -18 64 -18 53 0 -3 5 3 9 14 9 54 0
13 40 -72 70 -70 24 -157 24 -223 0z"/>
<path d="M7796 1968 c-23 -6 -40 -18 -43 -29 -3 -10 -11 -15 -18 -13 -7 3 -20
-2 -29 -11 -23 -24 -61 -99 -44 -89 7 5 5 -4 -6 -20 -26 -41 -19 -153 15 -220
20 -41 35 -56 85 -83 62 -34 117 -41 216 -29 40 4 122 45 121 60 -1 5 -12 16
-26 24 -22 14 -28 13 -69 -6 -32 -16 -63 -22 -110 -22 -64 0 -67 1 -117 46
-57 51 -62 73 -28 113 l22 26 211 -3 211 -4 1 30 c0 21 -5 31 -18 35 -10 3
-28 27 -40 56 -13 28 -27 51 -32 51 -6 0 -8 6 -5 13 6 16 -71 70 -90 63 -6 -3
-13 0 -15 5 -5 15 -146 20 -192 7z m101 -14 c-3 -3 -12 -4 -19 -1 -8 3 -5 6 6
6 11 1 17 -2 13 -5z m59 -48 c28 -13 55 -29 58 -35 4 -6 11 -9 15 -7 4 3 8 -8
9 -24 2 -21 -6 -35 -30 -55 -31 -26 -33 -26 -127 -20 -101 8 -141 26 -141 66
0 32 95 94 150 98 8 0 38 -10 66 -23z m-246 -200 c0 -3 -4 -8 -10 -11 -5 -3
-10 -1 -10 4 0 6 5 11 10 11 6 0 10 -2 10 -4z"/>
<path d="M2350 1746 c0 -20 6 -24 46 -30 59 -8 144 -8 212 0 46 6 52 9 52 30
l0 24 -155 0 -155 0 0 -24z"/>
<path d="M2018 518 c-46 -22 -68 -39 -68 -50 0 -10 -4 -18 -9 -18 -17 0 -51
-103 -51 -153 0 -75 40 -154 101 -195 26 -18 60 -37 76 -41 15 -4 32 -17 38
-29 13 -30 57 -30 70 0 6 13 28 28 56 37 26 9 65 33 88 54 35 31 45 49 58 104
14 55 15 75 4 125 -12 61 -43 123 -54 111 -4 -3 -7 0 -7 9 0 26 -107 72 -174
75 -52 3 -71 -2 -128 -29z"/>
<path d="M905 515 c-33 -14 -62 -25 -64 -25 -2 0 -1 -7 3 -15 3 -8 0 -14 -7
-12 -6 1 -23 -20 -38 -48 -23 -42 -27 -63 -27 -125 0 -65 4 -82 31 -133 31
-55 58 -76 130 -101 11 -3 21 -15 24 -25 10 -40 121 -38 138 2 6 11 30 33 55
47 28 16 56 45 75 75 27 43 30 57 30 129 0 101 -7 126 -48 170 -76 82 -196
106 -302 61z"/>
</g>
</svg>
